<svg width="192" height="147" viewBox="0 0 192 147" fill="none" xmlns="http://www.w3.org/2000/svg">
<rect x="2" y="11" width="188" height="102" fill="#283618"/>
<rect x="5" y="14" width="64" height="96" fill="#606C38"/>
<ellipse cx="38.8031" cy="61.1372" rx="26.0722" ry="27.3112" fill="#283618"/>
<ellipse cx="38.59" cy="61.38" rx="14.59" ry="15.38" fill="#606C38"/>
<path d="M13.7548 67.5472L23.1161 82.5887L13.2309 85.4945L13.7548 67.5472Z" fill="#283618"/>
<path d="M90.5625 48.9688H92.875L90.3594 55.8594C91.6927 53.6302 93.0156 51.9635 94.3281 50.8594C95.651 49.7448 96.9948 49.1875 98.3594 49.1875C98.9948 49.1875 99.5417 49.3073 100 49.5469C100.458 49.7865 100.833 50.1146 101.125 50.5312C101.417 50.9479 101.63 51.4427 101.766 52.0156C101.901 52.5781 101.969 53.1875 101.969 53.8438C101.969 54.5417 101.896 55.3073 101.75 56.1406C101.615 56.9635 101.411 57.7865 101.141 58.6094C100.609 60.2344 99.9167 61.651 99.0625 62.8594C98.2188 64.0677 97.2917 65.0781 96.2812 65.8906C95.2812 66.6927 94.2448 67.2969 93.1719 67.7031C92.099 68.099 91.0729 68.2969 90.0938 68.2969C89.5625 68.2969 89.1042 68.2344 88.7188 68.1094C88.3438 67.9844 88.0365 67.7865 87.7969 67.5156C87.5573 67.2448 87.375 66.8958 87.25 66.4688C87.125 66.0417 87.0573 65.5312 87.0469 64.9375L82.9375 76.2344H80.625L90.5625 48.9688ZM97.8281 49.9688C97.276 49.9688 96.7031 50.1302 96.1094 50.4531C95.526 50.7656 94.9427 51.1927 94.3594 51.7344C93.776 52.276 93.2031 52.9062 92.6406 53.625C92.0885 54.3438 91.5625 55.1094 91.0625 55.9219C90.5625 56.7344 90.099 57.5677 89.6719 58.4219C89.2552 59.276 88.8958 60.1094 88.5938 60.9219C88.2917 61.724 88.0521 62.4844 87.875 63.2031C87.7083 63.9219 87.625 64.5469 87.625 65.0781C87.625 65.4427 87.6667 65.7865 87.75 66.1094C87.8333 66.4219 87.9635 66.6979 88.1406 66.9375C88.3281 67.1667 88.5573 67.349 88.8281 67.4844C89.1094 67.6094 89.4427 67.6719 89.8281 67.6719C90.3281 67.6719 90.9271 67.5365 91.625 67.2656C92.3333 66.9844 93.0729 66.5052 93.8438 65.8281C94.625 65.151 95.4062 64.2396 96.1875 63.0938C96.9792 61.9479 97.7083 60.5052 98.375 58.7656C98.6042 58.1719 98.8073 57.5833 98.9844 57C99.1615 56.4167 99.3125 55.8594 99.4375 55.3281C99.5625 54.7865 99.6562 54.2812 99.7188 53.8125C99.7917 53.3438 99.8281 52.9271 99.8281 52.5625C99.8281 51.7604 99.6667 51.1302 99.3438 50.6719C99.0208 50.2031 98.5156 49.9688 97.8281 49.9688Z" fill="#FE9001"/>
<path d="M109.719 49.4844H112.031L108.047 60.4219C107.901 60.8281 107.755 61.2448 107.609 61.6719C107.464 62.0885 107.333 62.5052 107.219 62.9219C107.115 63.3281 107.026 63.724 106.953 64.1094C106.891 64.4844 106.859 64.8333 106.859 65.1562C106.859 65.875 107.047 66.4479 107.422 66.875C107.807 67.3021 108.401 67.5156 109.203 67.5156C109.901 67.5156 110.573 67.3646 111.219 67.0625C111.875 66.7604 112.521 66.3073 113.156 65.7031C113.802 65.0885 114.448 64.3229 115.094 63.4062C115.74 62.4792 116.411 61.401 117.109 60.1719L117.922 58.7344L118.344 59.0312L117.531 60.4688C116.771 61.8125 116.042 62.9792 115.344 63.9688C114.656 64.9479 113.964 65.7604 113.266 66.4062C112.578 67.0417 111.875 67.5156 111.156 67.8281C110.438 68.1406 109.672 68.2969 108.859 68.2969C108.224 68.2969 107.661 68.1979 107.172 68C106.693 67.8125 106.292 67.5417 105.969 67.1875C105.635 66.8333 105.385 66.4062 105.219 65.9062C105.052 65.4062 104.969 64.849 104.969 64.2344C104.969 63.6927 105.036 63.099 105.172 62.4531C105.297 61.8073 105.484 61.1302 105.734 60.4219L109.719 49.4844ZM110.969 45.3906C110.969 45.026 111.094 44.7135 111.344 44.4531C111.604 44.1927 111.917 44.0625 112.281 44.0625C112.646 44.0625 112.953 44.1927 113.203 44.4531C113.464 44.7031 113.594 45.0104 113.594 45.375C113.594 45.5521 113.557 45.724 113.484 45.8906C113.422 46.0469 113.328 46.1823 113.203 46.2969C113.089 46.4115 112.948 46.5052 112.781 46.5781C112.625 46.6406 112.453 46.6719 112.266 46.6719C111.901 46.6719 111.594 46.5521 111.344 46.3125C111.094 46.0625 110.969 45.7552 110.969 45.3906ZM136.938 49.9219L122.297 65.1094C122.516 65.0156 122.755 64.9427 123.016 64.8906C123.276 64.8281 123.557 64.7969 123.859 64.7969C124.328 64.7969 124.818 64.849 125.328 64.9531C125.849 65.0573 126.37 65.1875 126.891 65.3438C127.422 65.5 127.938 65.6667 128.438 65.8438C128.948 66.0208 129.427 66.1875 129.875 66.3438C130.333 66.5 130.75 66.6302 131.125 66.7344C131.5 66.8385 131.818 66.8906 132.078 66.8906C132.328 66.8906 132.562 66.875 132.781 66.8438C133.01 66.8125 133.234 66.7604 133.453 66.6875C133.672 66.6042 133.885 66.4948 134.094 66.3594C134.312 66.2135 134.536 66.0365 134.766 65.8281C135.391 65.2344 136.042 64.474 136.719 63.5469C137.406 62.6094 138.141 61.4844 138.922 60.1719L139.781 58.7344L140.188 59.0312L139.328 60.4688C138.505 61.8542 137.755 63.0312 137.078 64C136.401 64.9688 135.734 65.7656 135.078 66.3906C134.672 66.776 134.271 67.0938 133.875 67.3438C133.49 67.5938 133.094 67.7917 132.688 67.9375C132.281 68.0729 131.854 68.1667 131.406 68.2188C130.958 68.2708 130.469 68.2969 129.938 68.2969C129.542 68.2969 129.12 68.2448 128.672 68.1406C128.224 68.0469 127.766 67.9271 127.297 67.7812C126.839 67.625 126.375 67.4583 125.906 67.2812C125.438 67.1042 124.974 66.9427 124.516 66.7969C124.057 66.6406 123.609 66.5156 123.172 66.4219C122.745 66.3177 122.339 66.2656 121.953 66.2656C121.682 66.2656 121.458 66.3073 121.281 66.3906C121.115 66.4635 120.943 66.5833 120.766 66.75C120.599 66.9167 120.396 67.1302 120.156 67.3906C119.927 67.6406 119.615 67.9427 119.219 68.2969L118.859 67.7031L134.609 51.25C133.943 51.6771 133.286 52.0156 132.641 52.2656C132.005 52.5156 131.365 52.6406 130.719 52.6406C130.333 52.6406 129.943 52.5938 129.547 52.5C129.151 52.3958 128.755 52.2708 128.359 52.125C127.964 51.9688 127.578 51.8021 127.203 51.625C126.839 51.4479 126.495 51.2865 126.172 51.1406C125.859 50.9844 125.573 50.8594 125.312 50.7656C125.052 50.6615 124.839 50.6094 124.672 50.6094C124.411 50.6094 124.089 50.776 123.703 51.1094C123.318 51.4323 122.88 51.9062 122.391 52.5312C121.911 53.1458 121.38 53.9062 120.797 54.8125C120.224 55.7188 119.615 56.75 118.969 57.9062L118.141 59.3594L117.734 59.0781L118.562 57.6094C119.406 56.099 120.161 54.8125 120.828 53.75C121.495 52.6771 122.12 51.8021 122.703 51.125C123.286 50.4375 123.854 49.9375 124.406 49.625C124.969 49.3021 125.568 49.1406 126.203 49.1406C126.786 49.1406 127.344 49.25 127.875 49.4688C128.406 49.6771 128.927 49.9062 129.438 50.1562C129.958 50.4062 130.474 50.6406 130.984 50.8594C131.505 51.0677 132.047 51.1719 132.609 51.1719C133.151 51.1719 133.74 51.0365 134.375 50.7656C135.01 50.4948 135.724 50.0052 136.516 49.2969L136.938 49.9219ZM158.781 49.9219L144.141 65.1094C144.359 65.0156 144.599 64.9427 144.859 64.8906C145.12 64.8281 145.401 64.7969 145.703 64.7969C146.172 64.7969 146.661 64.849 147.172 64.9531C147.693 65.0573 148.214 65.1875 148.734 65.3438C149.266 65.5 149.781 65.6667 150.281 65.8438C150.792 66.0208 151.271 66.1875 151.719 66.3438C152.177 66.5 152.594 66.6302 152.969 66.7344C153.344 66.8385 153.661 66.8906 153.922 66.8906C154.172 66.8906 154.406 66.875 154.625 66.8438C154.854 66.8125 155.078 66.7604 155.297 66.6875C155.516 66.6042 155.729 66.4948 155.938 66.3594C156.156 66.2135 156.38 66.0365 156.609 65.8281C157.234 65.2344 157.885 64.474 158.562 63.5469C159.25 62.6094 159.984 61.4844 160.766 60.1719L161.625 58.7344L162.031 59.0312L161.172 60.4688C160.349 61.8542 159.599 63.0312 158.922 64C158.245 64.9688 157.578 65.7656 156.922 66.3906C156.516 66.776 156.115 67.0938 155.719 67.3438C155.333 67.5938 154.938 67.7917 154.531 67.9375C154.125 68.0729 153.698 68.1667 153.25 68.2188C152.802 68.2708 152.312 68.2969 151.781 68.2969C151.385 68.2969 150.964 68.2448 150.516 68.1406C150.068 68.0469 149.609 67.9271 149.141 67.7812C148.682 67.625 148.219 67.4583 147.75 67.2812C147.281 67.1042 146.818 66.9427 146.359 66.7969C145.901 66.6406 145.453 66.5156 145.016 66.4219C144.589 66.3177 144.182 66.2656 143.797 66.2656C143.526 66.2656 143.302 66.3073 143.125 66.3906C142.958 66.4635 142.786 66.5833 142.609 66.75C142.443 66.9167 142.24 67.1302 142 67.3906C141.771 67.6406 141.458 67.9427 141.062 68.2969L140.703 67.7031L156.453 51.25C155.786 51.6771 155.13 52.0156 154.484 52.2656C153.849 52.5156 153.208 52.6406 152.562 52.6406C152.177 52.6406 151.786 52.5938 151.391 52.5C150.995 52.3958 150.599 52.2708 150.203 52.125C149.807 51.9688 149.422 51.8021 149.047 51.625C148.682 51.4479 148.339 51.2865 148.016 51.1406C147.703 50.9844 147.417 50.8594 147.156 50.7656C146.896 50.6615 146.682 50.6094 146.516 50.6094C146.255 50.6094 145.932 50.776 145.547 51.1094C145.161 51.4323 144.724 51.9062 144.234 52.5312C143.755 53.1458 143.224 53.9062 142.641 54.8125C142.068 55.7188 141.458 56.75 140.812 57.9062L139.984 59.3594L139.578 59.0781L140.406 57.6094C141.25 56.099 142.005 54.8125 142.672 53.75C143.339 52.6771 143.964 51.8021 144.547 51.125C145.13 50.4375 145.698 49.9375 146.25 49.625C146.812 49.3021 147.411 49.1406 148.047 49.1406C148.63 49.1406 149.188 49.25 149.719 49.4688C150.25 49.6771 150.771 49.9062 151.281 50.1562C151.802 50.4062 152.318 50.6406 152.828 50.8594C153.349 51.0677 153.891 51.1719 154.453 51.1719C154.995 51.1719 155.583 51.0365 156.219 50.7656C156.854 50.4948 157.568 50.0052 158.359 49.2969L158.781 49.9219ZM161.562 58.875C161.938 57.75 162.385 56.7292 162.906 55.8125C163.427 54.8854 163.99 54.0625 164.594 53.3438C165.208 52.625 165.849 52.0052 166.516 51.4844C167.193 50.9635 167.865 50.5365 168.531 50.2031C169.208 49.8594 169.87 49.6042 170.516 49.4375C171.172 49.2708 171.786 49.1875 172.359 49.1875C172.953 49.1875 173.448 49.2812 173.844 49.4688C174.24 49.6458 174.557 49.901 174.797 50.2344C175.047 50.5573 175.224 50.9531 175.328 51.4219C175.432 51.8802 175.484 52.3906 175.484 52.9531L176.75 49.4844H179.062L175.078 60.4219C174.932 60.8281 174.786 61.2448 174.641 61.6719C174.495 62.0885 174.365 62.5052 174.25 62.9219C174.146 63.3281 174.057 63.724 173.984 64.1094C173.922 64.4844 173.891 64.8333 173.891 65.1562C173.891 65.875 174.078 66.4479 174.453 66.875C174.839 67.3021 175.432 67.5156 176.234 67.5156C176.932 67.5156 177.609 67.3698 178.266 67.0781C178.922 66.776 179.568 66.3229 180.203 65.7188C180.849 65.1042 181.495 64.3385 182.141 63.4219C182.786 62.4948 183.453 61.4115 184.141 60.1719L184.938 58.7344L185.359 59.0312L184.547 60.4688C183.786 61.8229 183.057 62.9948 182.359 63.9844C181.672 64.9635 180.984 65.776 180.297 66.4219C179.609 67.0573 178.906 67.5312 178.188 67.8438C177.469 68.1458 176.703 68.2969 175.891 68.2969C175.255 68.2969 174.693 68.1979 174.203 68C173.724 67.8125 173.318 67.5417 172.984 67.1875C172.661 66.8333 172.417 66.4062 172.25 65.9062C172.083 65.4062 172 64.849 172 64.2344C172 63.8281 172.036 63.3906 172.109 62.9219C172.182 62.4427 172.292 61.9479 172.438 61.4375C171.073 63.7292 169.724 65.4479 168.391 66.5938C167.057 67.7292 165.703 68.2969 164.328 68.2969C163.682 68.2969 163.13 68.1823 162.672 67.9531C162.224 67.7135 161.854 67.3854 161.562 66.9688C161.271 66.5417 161.057 66.0469 160.922 65.4844C160.786 64.9115 160.719 64.2865 160.719 63.6094C160.719 62.8802 160.792 62.1146 160.938 61.3125C161.083 60.5 161.292 59.6875 161.562 58.875ZM164.891 67.5156C165.453 67.5156 166.026 67.3698 166.609 67.0781C167.193 66.776 167.771 66.3698 168.344 65.8594C168.927 65.3385 169.49 64.7344 170.031 64.0469C170.573 63.349 171.083 62.6094 171.562 61.8281C172.052 61.0365 172.5 60.224 172.906 59.3906C173.312 58.5573 173.661 57.7396 173.953 56.9375C174.255 56.125 174.484 55.3542 174.641 54.625C174.807 53.8854 174.891 53.224 174.891 52.6406C174.891 52.1094 174.823 51.6667 174.688 51.3125C174.562 50.9479 174.391 50.6562 174.172 50.4375C173.964 50.2083 173.719 50.0469 173.438 49.9531C173.167 49.8594 172.885 49.8125 172.594 49.8125C172.01 49.8125 171.359 49.9948 170.641 50.3594C169.932 50.7135 169.208 51.2604 168.469 52C167.729 52.7292 167 53.6562 166.281 54.7812C165.573 55.8958 164.922 57.2083 164.328 58.7188C163.839 59.9792 163.469 61.1458 163.219 62.2188C162.979 63.2917 162.859 64.1875 162.859 64.9062C162.859 65.7188 163.021 66.3594 163.344 66.8281C163.677 67.2865 164.193 67.5156 164.891 67.5156Z" fill="white"/>
<path d="M77.8662 129.674H78.8779L77.7773 132.688C78.3607 131.713 78.9395 130.984 79.5137 130.501C80.0924 130.013 80.6803 129.77 81.2773 129.77C81.5553 129.77 81.7946 129.822 81.9951 129.927C82.1956 130.032 82.3597 130.175 82.4873 130.357C82.6149 130.54 82.7083 130.756 82.7676 131.007C82.8268 131.253 82.8564 131.52 82.8564 131.807C82.8564 132.112 82.8245 132.447 82.7607 132.812C82.7015 133.172 82.6126 133.532 82.4941 133.892C82.2617 134.603 81.9587 135.222 81.585 135.751C81.2158 136.28 80.8102 136.722 80.3682 137.077C79.9307 137.428 79.4772 137.692 79.0078 137.87C78.5384 138.043 78.0895 138.13 77.6611 138.13C77.4287 138.13 77.2282 138.103 77.0596 138.048C76.8955 137.993 76.7611 137.907 76.6562 137.788C76.5514 137.67 76.4717 137.517 76.417 137.33C76.3623 137.143 76.3327 136.92 76.3281 136.66L74.5303 141.603H73.5186L77.8662 129.674ZM81.0449 130.111C80.8034 130.111 80.5527 130.182 80.293 130.323C80.0378 130.46 79.7826 130.647 79.5273 130.884C79.2721 131.121 79.0215 131.396 78.7754 131.711C78.5339 132.025 78.3037 132.36 78.085 132.716C77.8662 133.071 77.6634 133.436 77.4766 133.81C77.2943 134.183 77.137 134.548 77.0049 134.903C76.8727 135.254 76.7679 135.587 76.6904 135.901C76.6175 136.216 76.5811 136.489 76.5811 136.722C76.5811 136.881 76.5993 137.032 76.6357 137.173C76.6722 137.31 76.7292 137.43 76.8066 137.535C76.8887 137.635 76.9889 137.715 77.1074 137.774C77.2305 137.829 77.3763 137.856 77.5449 137.856C77.7637 137.856 78.0257 137.797 78.3311 137.679C78.641 137.556 78.9645 137.346 79.3018 137.05C79.6436 136.754 79.9854 136.355 80.3271 135.854C80.6735 135.352 80.9925 134.721 81.2842 133.96C81.3844 133.7 81.4733 133.443 81.5508 133.188C81.6283 132.932 81.6943 132.688 81.749 132.456C81.8037 132.219 81.8447 131.998 81.8721 131.793C81.904 131.588 81.9199 131.406 81.9199 131.246C81.9199 130.895 81.8493 130.619 81.708 130.419C81.5667 130.214 81.3457 130.111 81.0449 130.111ZM84.7432 134.008C84.9072 133.516 85.1032 133.069 85.3311 132.668C85.5589 132.262 85.805 131.902 86.0693 131.588C86.3382 131.273 86.6185 131.002 86.9102 130.774C87.2064 130.547 87.5003 130.36 87.792 130.214C88.0882 130.063 88.3776 129.952 88.6602 129.879C88.9473 129.806 89.2161 129.77 89.4668 129.77C89.7266 129.77 89.943 129.811 90.1162 129.893C90.2894 129.97 90.4284 130.082 90.5332 130.228C90.6426 130.369 90.7201 130.542 90.7656 130.747C90.8112 130.948 90.834 131.171 90.834 131.417L91.3877 129.899H92.3994L90.6562 134.685C90.5924 134.862 90.5286 135.045 90.4648 135.231C90.401 135.414 90.3441 135.596 90.2939 135.778C90.2484 135.956 90.2096 136.129 90.1777 136.298C90.1504 136.462 90.1367 136.615 90.1367 136.756C90.1367 137.07 90.2188 137.321 90.3828 137.508C90.5514 137.695 90.8112 137.788 91.1621 137.788C91.4674 137.788 91.7637 137.724 92.0508 137.597C92.3379 137.465 92.6204 137.266 92.8984 137.002C93.181 136.733 93.4635 136.398 93.7461 135.997C94.0286 135.591 94.3203 135.118 94.6211 134.575L94.9697 133.946L95.1543 134.076L94.7988 134.705C94.4661 135.298 94.1471 135.81 93.8418 136.243C93.541 136.672 93.2402 137.027 92.9395 137.31C92.6387 137.588 92.3311 137.795 92.0166 137.932C91.7021 138.064 91.3672 138.13 91.0117 138.13C90.7337 138.13 90.4876 138.087 90.2734 138C90.0638 137.918 89.8861 137.799 89.7402 137.645C89.599 137.49 89.4919 137.303 89.4189 137.084C89.346 136.865 89.3096 136.621 89.3096 136.353C89.3096 136.175 89.3255 135.983 89.3574 135.778C89.3893 135.569 89.4372 135.352 89.501 135.129C88.904 136.132 88.3138 136.883 87.7305 137.385C87.1471 137.882 86.5547 138.13 85.9531 138.13C85.6706 138.13 85.429 138.08 85.2285 137.979C85.0326 137.875 84.8708 137.731 84.7432 137.549C84.6156 137.362 84.5221 137.146 84.4629 136.899C84.4036 136.649 84.374 136.375 84.374 136.079C84.374 135.76 84.4059 135.425 84.4697 135.074C84.5335 134.719 84.6247 134.363 84.7432 134.008ZM86.1992 137.788C86.4453 137.788 86.696 137.724 86.9512 137.597C87.2064 137.465 87.4593 137.287 87.71 137.063C87.9652 136.836 88.2113 136.571 88.4482 136.271C88.6852 135.965 88.9085 135.642 89.1182 135.3C89.3324 134.953 89.5283 134.598 89.7061 134.233C89.8838 133.869 90.0365 133.511 90.1641 133.16C90.2962 132.805 90.3965 132.467 90.4648 132.148C90.5378 131.825 90.5742 131.535 90.5742 131.28C90.5742 131.048 90.5446 130.854 90.4854 130.699C90.4307 130.54 90.3555 130.412 90.2598 130.316C90.1686 130.216 90.0615 130.146 89.9385 130.104C89.82 130.063 89.6969 130.043 89.5693 130.043C89.3141 130.043 89.0293 130.123 88.7148 130.282C88.4049 130.437 88.0882 130.676 87.7646 131C87.4411 131.319 87.1221 131.725 86.8076 132.217C86.4977 132.704 86.2129 133.279 85.9531 133.939C85.7389 134.491 85.5771 135.001 85.4678 135.471C85.363 135.94 85.3105 136.332 85.3105 136.646C85.3105 137.002 85.3812 137.282 85.5225 137.487C85.6683 137.688 85.8939 137.788 86.1992 137.788ZM97.752 126.297H98.7705L95.7148 134.685C95.651 134.862 95.5872 135.045 95.5234 135.231C95.4596 135.414 95.4027 135.596 95.3525 135.778C95.307 135.956 95.2682 136.129 95.2363 136.298C95.209 136.462 95.1953 136.615 95.1953 136.756C95.1953 137.07 95.2773 137.321 95.4414 137.508C95.61 137.695 95.8698 137.788 96.2207 137.788C96.526 137.788 96.82 137.722 97.1025 137.59C97.3896 137.458 97.6722 137.259 97.9502 136.995C98.2327 136.726 98.5153 136.391 98.7979 135.99C99.0804 135.585 99.3743 135.113 99.6797 134.575L100.035 133.946L100.22 134.076L99.8643 134.705C99.5316 135.293 99.2126 135.803 98.9072 136.236C98.6064 136.665 98.3034 137.02 97.998 137.303C97.6973 137.581 97.3896 137.788 97.0752 137.925C96.7607 138.062 96.4258 138.13 96.0703 138.13C95.7923 138.13 95.5462 138.087 95.332 138C95.1224 137.918 94.9469 137.799 94.8057 137.645C94.6598 137.49 94.5505 137.303 94.4775 137.084C94.4046 136.865 94.3682 136.621 94.3682 136.353C94.3682 136.116 94.3955 135.858 94.4502 135.58C94.5049 135.298 94.5892 134.999 94.7031 134.685L97.752 126.297ZM100.001 134.008C100.165 133.516 100.361 133.069 100.589 132.668C100.817 132.262 101.063 131.902 101.327 131.588C101.596 131.273 101.876 131.002 102.168 130.774C102.464 130.547 102.758 130.36 103.05 130.214C103.346 130.063 103.635 129.952 103.918 129.879C104.205 129.806 104.474 129.77 104.725 129.77C104.984 129.77 105.201 129.811 105.374 129.893C105.547 129.97 105.686 130.082 105.791 130.228C105.9 130.369 105.978 130.542 106.023 130.747C106.069 130.948 106.092 131.171 106.092 131.417L106.646 129.899H107.657L105.914 134.685C105.85 134.862 105.786 135.045 105.723 135.231C105.659 135.414 105.602 135.596 105.552 135.778C105.506 135.956 105.467 136.129 105.436 136.298C105.408 136.462 105.395 136.615 105.395 136.756C105.395 137.07 105.477 137.321 105.641 137.508C105.809 137.695 106.069 137.788 106.42 137.788C106.725 137.788 107.021 137.724 107.309 137.597C107.596 137.465 107.878 137.266 108.156 137.002C108.439 136.733 108.721 136.398 109.004 135.997C109.286 135.591 109.578 135.118 109.879 134.575L110.228 133.946L110.412 134.076L110.057 134.705C109.724 135.298 109.405 135.81 109.1 136.243C108.799 136.672 108.498 137.027 108.197 137.31C107.896 137.588 107.589 137.795 107.274 137.932C106.96 138.064 106.625 138.13 106.27 138.13C105.992 138.13 105.745 138.087 105.531 138C105.322 137.918 105.144 137.799 104.998 137.645C104.857 137.49 104.75 137.303 104.677 137.084C104.604 136.865 104.567 136.621 104.567 136.353C104.567 136.175 104.583 135.983 104.615 135.778C104.647 135.569 104.695 135.352 104.759 135.129C104.162 136.132 103.572 136.883 102.988 137.385C102.405 137.882 101.812 138.13 101.211 138.13C100.928 138.13 100.687 138.08 100.486 137.979C100.29 137.875 100.129 137.731 100.001 137.549C99.8734 137.362 99.7799 137.146 99.7207 136.899C99.6615 136.649 99.6318 136.375 99.6318 136.079C99.6318 135.76 99.6637 135.425 99.7275 135.074C99.7913 134.719 99.8825 134.363 100.001 134.008ZM101.457 137.788C101.703 137.788 101.954 137.724 102.209 137.597C102.464 137.465 102.717 137.287 102.968 137.063C103.223 136.836 103.469 136.571 103.706 136.271C103.943 135.965 104.166 135.642 104.376 135.3C104.59 134.953 104.786 134.598 104.964 134.233C105.142 133.869 105.294 133.511 105.422 133.16C105.554 132.805 105.654 132.467 105.723 132.148C105.796 131.825 105.832 131.535 105.832 131.28C105.832 131.048 105.802 130.854 105.743 130.699C105.688 130.54 105.613 130.412 105.518 130.316C105.426 130.216 105.319 130.146 105.196 130.104C105.078 130.063 104.955 130.043 104.827 130.043C104.572 130.043 104.287 130.123 103.973 130.282C103.663 130.437 103.346 130.676 103.022 131C102.699 131.319 102.38 131.725 102.065 132.217C101.756 132.704 101.471 133.279 101.211 133.939C100.997 134.491 100.835 135.001 100.726 135.471C100.621 135.94 100.568 136.332 100.568 136.646C100.568 137.002 100.639 137.282 100.78 137.487C100.926 137.688 101.152 137.788 101.457 137.788ZM115.361 131.54C115.206 131.54 115.083 131.497 114.992 131.41C114.906 131.319 114.862 131.196 114.862 131.041C114.862 130.895 114.901 130.777 114.979 130.686C115.056 130.594 115.159 130.549 115.286 130.549C115.332 130.549 115.375 130.558 115.416 130.576C115.439 130.585 115.455 130.592 115.464 130.597C115.473 130.597 115.482 130.597 115.491 130.597C115.532 130.597 115.553 130.567 115.553 130.508C115.553 130.449 115.53 130.392 115.484 130.337C115.439 130.278 115.377 130.228 115.3 130.187C115.222 130.141 115.131 130.107 115.026 130.084C114.926 130.057 114.821 130.043 114.712 130.043C114.429 130.043 114.142 130.125 113.851 130.289C113.563 130.453 113.283 130.679 113.01 130.966C112.741 131.248 112.486 131.581 112.244 131.964C112.007 132.347 111.8 132.757 111.622 133.194C111.444 133.627 111.303 134.076 111.198 134.541C111.098 135.006 111.048 135.462 111.048 135.908C111.048 136.245 111.077 136.533 111.137 136.77C111.201 137.007 111.296 137.2 111.424 137.351C111.556 137.501 111.725 137.613 111.93 137.686C112.135 137.754 112.381 137.788 112.668 137.788C113.092 137.788 113.504 137.717 113.905 137.576C114.311 137.435 114.701 137.23 115.074 136.961C115.452 136.688 115.81 136.353 116.147 135.956C116.489 135.555 116.806 135.095 117.098 134.575L117.453 133.946L117.638 134.076L117.282 134.705C116.631 135.863 115.91 136.724 115.122 137.289C114.334 137.85 113.472 138.13 112.538 138.13C111.69 138.13 111.052 137.911 110.624 137.474C110.2 137.036 109.988 136.4 109.988 135.566C109.988 135.32 110.007 135.067 110.043 134.808C110.079 134.548 110.132 134.286 110.2 134.021C110.364 133.411 110.594 132.846 110.891 132.326C111.191 131.807 111.533 131.358 111.916 130.979C112.303 130.601 112.72 130.305 113.167 130.091C113.618 129.877 114.076 129.77 114.541 129.77C115.029 129.77 115.4 129.897 115.655 130.152C115.76 130.257 115.84 130.373 115.895 130.501C115.949 130.624 115.977 130.752 115.977 130.884C115.977 131.084 115.92 131.244 115.806 131.362C115.696 131.481 115.548 131.54 115.361 131.54ZM119.798 138.13C118.973 138.13 118.337 137.916 117.891 137.487C117.444 137.054 117.221 136.412 117.221 135.56C117.221 135.327 117.239 135.081 117.275 134.821C117.307 134.562 117.36 134.295 117.433 134.021C117.597 133.411 117.827 132.846 118.123 132.326C118.424 131.807 118.768 131.358 119.155 130.979C119.543 130.601 119.96 130.305 120.406 130.091C120.853 129.877 121.302 129.77 121.753 129.77C122.209 129.77 122.566 129.877 122.826 130.091C123.09 130.305 123.223 130.606 123.223 130.993C123.223 131.212 123.179 131.426 123.093 131.636C123.006 131.845 122.881 132.044 122.717 132.23C122.553 132.417 122.354 132.593 122.122 132.757C121.894 132.916 121.637 133.055 121.35 133.174C120.994 133.324 120.602 133.438 120.174 133.516C119.745 133.589 119.258 133.625 118.711 133.625C118.579 133.994 118.474 134.379 118.396 134.78C118.324 135.177 118.287 135.582 118.287 135.997C118.287 136.631 118.419 137.089 118.684 137.371C118.952 137.649 119.374 137.788 119.948 137.788C120.427 137.788 120.882 137.697 121.315 137.515C121.748 137.328 122.149 137.084 122.519 136.783C122.888 136.482 123.225 136.141 123.53 135.758C123.836 135.37 124.102 134.976 124.33 134.575L124.686 133.946L124.87 134.076L124.515 134.705C124.232 135.202 123.922 135.66 123.585 136.079C123.252 136.498 122.888 136.861 122.491 137.166C122.099 137.467 121.678 137.704 121.227 137.877C120.78 138.046 120.304 138.13 119.798 138.13ZM121.944 130.043C121.657 130.043 121.363 130.127 121.062 130.296C120.766 130.465 120.479 130.699 120.201 131C119.923 131.296 119.663 131.647 119.422 132.053C119.18 132.458 118.971 132.9 118.793 133.379C119.294 133.37 119.723 133.326 120.078 133.249C120.434 133.167 120.743 133.064 121.008 132.941C121.217 132.846 121.42 132.723 121.616 132.572C121.817 132.417 121.992 132.242 122.143 132.046C122.298 131.85 122.421 131.638 122.512 131.41C122.607 131.182 122.655 130.945 122.655 130.699C122.655 130.576 122.637 130.474 122.601 130.392C122.564 130.31 122.514 130.243 122.45 130.193C122.386 130.139 122.311 130.1 122.225 130.077C122.138 130.054 122.045 130.043 121.944 130.043Z" fill="#606C38"/>
</svg>
